# AST/ASF file generated using VICON BodyLanguage
# -----------------------------------------------
:version 1.10
:name VICON
:units
  mass 1.0
  length 0.45
  angle deg
:documentation
   .ast/.asf automatically generated from VICON data using
   VICON BodyBuilder and BodyLanguage model FoxedUp or BRILLIANT.MOD
:root
   order TX TY TZ RX RY RZ
   axis XYZ
   position 0 0 0  
   orientation 0 0 0 
:bonedata
  begin
     id 1 
     name lhipjoint
     direction 0.693937 -0.600361 0.397515 
     length 2.37164 
     axis 0 0 0  XYZ
  end
  begin
     id 2 
     name lfemur
     direction 0.34202 -0.939693 0  
     length 6.18497  
     axis 0 0 20  XYZ
    dof rx ry rz
    limits (-160.0 20.0)
           (-70.0 70.0)
           (-60.0 70.0)
  end
  begin
     id 3 
     name ltibia
     direction 0.34202 -0.939693 0   
     length 6.91601   
     axis 0 0 20   XYZ
    dof rx
    limits (-10.0 170.0)
  end
  begin
     id 4 
     name lfoot
     direction 0.0978718 -0.2689 0.958182   
     length 1.81453   
     axis -90 7.62852e-016 20   XYZ
    dof rx rz
    limits (-45.0 90.0)
           (-70.0 20.0)
  end
  begin
     id 5 
     name ltoes
     direction 1.53569e-011 -4.21951e-011 1   
     length 0.912052   
     axis -90 7.62852e-016 20   XYZ
    dof rx
    limits (-90.0 20.0)
  end
  begin
     id 6 
     name rhipjoint
     direction -0.643996 -0.637876 0.422354   
     length 2.23216  
     axis 0 0 0  XYZ 
  end
  begin
     id 7 
     name rfemur
     direction -0.34202 -0.939693 0   
     length 6.15404   
     axis 0 0 -20   XYZ
    dof rx ry rz
    limits (-160.0 20.0)
           (-70.0 70.0)
           (-70.0 60.0)
  end
  begin
     id 8 
     name rtibia
     direction -0.34202 -0.939693 0   
     length 6.86744   
     axis 0 0 -20   XYZ
    dof rx
    limits (-10.0 170.0)
 end
 begin
     id 9 
     name rfoot
     direction -0.118701 -0.326127 0.937844   
     length 1.9243  
     axis -90 -7.62852e-016 -20   XYZ
    dof rx rz
    limits (-45.0 90.0)
           (-20.0 70.0)
  end
  begin
     id 10 
     name rtoes
     direction -1.5356e-011 -4.2181e-011 1   
     length 0.958865   
     axis -90 -7.62852e-016 -20   XYZ
    dof rx
    limits (-90.0 20.0)
  end
  begin
     id 11 
     name lowerback
     direction 0.0310826 0.968686 -0.246334   
     length 2.00021   
     axis 0 0 0   XYZ
    dof rx ry rz
    limits (-20.0 45.0)
           (-30.0 30.0)
           (-30.0 30.0)
  end
  begin
     id 12 
     name upperback
     direction -0.0152834 0.999474 -0.0286152   
     length 2.03728   
     axis 0 0 0   XYZ
    dof rx ry rz
    limits (-20.0 45.0)
           (-30.0 30.0)
           (-30.0 30.0)
  end
  begin
     id 13 
     name thorax
     direction -0.0323701 0.996236 0.0804149   
     length 2.16   
     axis 0 0 0   XYZ
    dof rx ry rz
    limits (-20.0 45.0)
           (-30.0 30.0)
           (-30.0 30.0)
  end
  begin
     id 14 
     name lowerneck
     direction 0.0307935 0.982251 0.185027   
     length 1.43558   
     axis 0 0 0   XYZ
    dof rx ry rz
    limits (-20.0 45.0)
           (-30.0 30.0)
           (-30.0 30.0)
  end
  begin
     id 15 
     name upperneck
     direction -0.0927153 0.994775 0.0427454   
     length 1.44603   
     axis 0 0 0   XYZ
    dof rx ry rz
    limits (-20.0 45.0)
           (-30.0 30.0)
           (-30.0 30.0)
  end
  begin
     id 16
     name head
     direction -0.0341265 0.999406 -0.00472033  
     length 1.45931  
     axis 0 0 0   XYZ
    dof rx ry rz
    limits (-20.0 45.0)
           (-30.0 30.0)
           (-30.0 30.0)
  end
  begin
     id 17 
     name lclavicle
     direction 0.820755 0.555306 -0.134151  
     length 2.66075  
     axis 0 0 0   XYZ
    dof ry rz
    limits (-20.0 10.0)
           (0.0 20.0)
  end
  begin
     id 18 
     name lhumerus
     direction 1 -4.48971e-011 5.24853e-027   
     length 5.0546   
     axis -180 -30 -90   XYZ
    dof rx ry rz
    limits (-60.0 90.0)
           (-90.0 90.0)
           (-90.0 90.0)
  end
  begin
     id 19
     name lradius
     direction 1 -4.48971e-011 2.76575e-028   
     length 3.39013   
     axis -180 -30 -90   XYZ
    dof rx
    limits (-10.0 170.0)
  end
  begin
     id 20
     name lwrist
     direction 1 -4.48939e-011 -2.27826e-027   
     length 1.69507   
     axis 2.17013e-015 90 90   XYZ
    dof ry
    limits (-180.0 0.0)
 end
  begin
     id 21 
     name lhand
     direction 1 -4.49009e-011 -4.55652e-027   
     length 0.572425   
     axis 2.90745e-015 90 90   XYZ
    dof rx rz
    limits (-90.0 90.0)
           (-45.0 45.0)
  end
  begin
     id 22 
     name lfingers
     direction 1 -4.48955e-011 -9.11303e-027   
     length 0.461504   
     axis 5.81489e-015 90 90   XYZ
    dof rx
    limits (0.0 90.0)
  end
  begin
     id 23
     name lthumb
     direction 0.707107 -6.34929e-011 0.707107   
     length 0.66263   
     axis -90 45 2.85299e-015   XYZ
    dof rx rz
    limits (-45.0 45.0)
           (-45.0 45.0)
  end
  begin
     id 24 
     name rclavicle
     direction -0.754477 0.632921 -0.173712   
     length 2.73081  
     axis 0 0 0   XYZ 
    dof ry rz
    limits (-10.0 20.0)
           (-20.0 0.0)
  end
  begin
     id 25 
     name rhumerus
     direction -1 -4.48969e-011 5.1496e-027  
     length 5.0701   
     axis -180 30 90   XYZ
    dof rx ry rz
    limits (-90.0 60.0)
           (-90.0 90.0)
           (-90.0 90.0)
  end
  begin
     id 26 
     name rradius
     direction -1 -4.48967e-011 -7.15624e-028   
     length 3.14957   
     axis -180 30 90   XYZ
    dof rx
    limits (-10.0 170.0)
  end
  begin
     id 27 
     name rwrist
     direction -1 -4.48938e-011 -2.27826e-027   
     length 1.57479   
     axis 2.17013e-015 -90 -90   XYZ
    dof ry
    limits (-180.0 0.0)
  end
  begin
     id 28
     name rhand
     direction -1 -4.49008e-011 -4.55652e-027   
     length 0.718191   
     axis 2.90745e-015 -90 -90   XYZ
    dof rx rz
    limits (-90.0 90.0)
           (-45.0 45.0)
  end
  begin
     id 29
     name rfingers
     direction -1 -4.48953e-011 -9.11303e-027   
     length 0.579024   
     axis 5.81489e-015 -90 -90   XYZ
    dof rx
    limits (0.0 90.0)
  end
  begin
     id 30
     name rthumb
     direction -0.707107 -6.34937e-011 0.707107   
     length 0.831366   
     axis -90 -45 -2.85299e-015   XYZ
    dof rx rz
    limits (-45.0 45.0)
           (-45.0 45.0)
  end
:hierarchy
  begin
    root lhipjoint rhipjoint lowerback
    lhipjoint lfemur
    lfemur ltibia
    ltibia lfoot
    lfoot ltoes
    rhipjoint rfemur
    rfemur rtibia
    rtibia rfoot
    rfoot rtoes
    lowerback upperback
    upperback thorax
    thorax lowerneck lclavicle rclavicle
    lowerneck upperneck
    upperneck head
    lclavicle lhumerus
    lhumerus lradius
    lradius lwrist
    lwrist lhand lthumb
    lhand lfingers
    rclavicle rhumerus
    rhumerus rradius
    rradius rwrist
    rwrist rhand rthumb
    rhand rfingers
  end

#!OML:ASF H:\Male1\Project 1\Capture day 1\Session 1\Male1.ASF
:FULLY-SPECIFIED
:DEGREES
80
root -24.0586 15.0041 -0.425323 -15.0952 85.601 -15.5858
lowerback 3.13857 2.17269 0.0592595
upperback 2.85571 2.95265 -1.08288
thorax 1.23138 1.50913 -1.19989
lowerneck -11.1339 5.09893 8.36856
upperneck 11.4305 5.89528 -2.73233
head 5.61094 3.05894 -1.71953
rclavicle 3.77691e-015 -7.95139e-015
rhumerus -36.6479 -0.780895 -88.321
rradius 36.3157
rwrist -21.3186
rhand -17.1834 0.152015
rfingers 7.12502
rthumb 9.05838 -29.6335
lclavicle 3.77691e-015 -7.95139e-015
lhumerus -31.55 -1.99427 84.9783
lradius 30.7446
lwrist -1.23747
lhand -20.1734 11.5333
lfingers 7.12502
lthumb 6.17238 41.4234
rfemur -10.66 16.7481 24.6967
rtibia 32.6385
rfoot -30.8874 -30.314
rtoes -23.2324
lfemur -11.8044 -18.8136 -21.0228
ltibia 34.6866
lfoot -29.0611 24.6356
ltoes -1.11682
81
root -24.0573 15.0046 -0.423641 -15.0707 85.6216 -15.5933
lowerback 3.15067 2.16325 0.0487512
upperback 2.81396 2.93837 -1.08268
thorax 1.18085 1.50114 -1.19517
lowerneck -11.1526 5.09523 8.347
upperneck 11.4808 5.88791 -2.69213
head 5.62766 3.05799 -1.70326
rclavicle 9.14409e-015 1.07344e-014
rhumerus -36.7322 -0.763738 -88.3172
rradius 36.3641
rwrist -21.3119
rhand -17.2484 0.215272
rfingers 7.12502
rthumb 8.99568 -29.5729
lclavicle 9.14409e-015 1.07344e-014
lhumerus -31.5613 -1.9915 84.956
lradius 30.7071
lwrist -1.28916
lhand -20.0167 11.1404
lfingers 7.12502
lthumb 6.32373 41.026
rfemur -10.6329 16.8095 24.6984
rtibia 32.5161
rfoot -30.8221 -30.4015
rtoes -23.2994
lfemur -11.8721 -18.8322 -21.0054
ltibia 34.7355
lfoot -29.101 24.6351
ltoes -0.931564
82
root -24.0563 15.005 -0.421624 -15.4803 85.6134 -16.0421
lowerback 3.15173 2.13711 0.0499681
upperback 2.7801 2.90203 -1.06176
thorax 1.1436 1.48213 -1.17466
lowerneck -11.2197 5.11671 8.33024
upperneck 11.5731 5.91223 -2.66929
head 5.66815 3.07152 -1.68884
rclavicle 1.70955e-014 -7.15625e-015
rhumerus -36.7902 -0.648892 -88.3417
rradius 36.4166
rwrist -21.3218
rhand -17.309 0.316281
rfingers 7.12502
rthumb 8.93715 -29.4744
lclavicle 1.70955e-014 -7.15625e-015
lhumerus -31.5712 -1.94327 84.9195
lradius 30.679
lwrist -1.24778
lhand -19.9402 10.8691
lfingers 7.12502
lthumb 6.39751 40.7524
rfemur -10.6089 16.881 24.7388
rtibia 32.4159
rfoot -30.8507 -30.4205
rtoes -23.0568
lfemur -11.9538 -18.7111 -20.9313
ltibia 34.7856
lfoot -29 24.5846
ltoes -1.0198
83
root -24.0554 15.0051 -0.420217 -16.8453 85.579 -17.4133
lowerback 3.20327 2.12131 0.145071
upperback 2.75798 2.88164 -1.03367
thorax 1.09487 1.47271 -1.2013
lowerneck -11.2841 5.11793 8.36262
upperneck 11.6291 5.90204 -2.65901
head 5.69681 3.06898 -1.68966
rclavicle -9.19379e-015 -3.57812e-015
rhumerus -36.8243 -0.505033 -88.4038
rradius 36.4552
rwrist -21.4211
rhand -17.4181 0.288598
rfingers 7.12502
rthumb 8.83188 -29.5066
lclavicle -9.19379e-015 -3.57812e-015
lhumerus -31.5781 -1.97382 84.89
lradius 30.663
lwrist -1.16378
lhand -20.0367 10.9127
lfingers 7.12502
lthumb 6.30439 40.7989
rfemur -10.5593 16.9361 24.8696
rtibia 32.3595
rfoot -30.9327 -30.4058
rtoes -22.8336
lfemur -11.992 -18.5765 -20.7948
ltibia 34.8459
lfoot -28.8876 24.5276
ltoes -1.1832
84
root -24.0543 15.0046 -0.420261 -17.6415 85.5941 -18.1855
lowerback 3.25713 2.11024 0.217923
upperback 2.76896 2.86869 -1.02814
thorax 1.07909 1.4675 -1.238
lowerneck -11.3634 5.10425 8.37911
upperneck 11.6477 5.87099 -2.64203
head 5.71433 3.05526 -1.68779
rclavicle 2.1419e-014 -3.18055e-015
rhumerus -36.8275 -0.422227 -88.4345
rradius 36.4909
rwrist -21.5052
rhand -17.5037 0.169889
rfingers 7.12502
rthumb 8.74927 -29.6288
lclavicle 2.1419e-014 -3.18055e-015
lhumerus -31.5127 -2.00033 84.8694
lradius 30.6104
lwrist -1.13296
lhand -20.1154 10.8692
lfingers 7.12502
lthumb 6.2284 40.7576
rfemur -10.4852 16.9305 24.9406
rtibia 32.2945
rfoot -30.9658 -30.4255
rtoes -22.9286
lfemur -11.995 -18.571 -20.746
ltibia 34.9172
lfoot -28.904 24.4727
ltoes -1.24081
